<svg width="56" height="50" viewBox="0 0 56 50" fill="none" xmlns="http://www.w3.org/2000/svg">
<path d="M22.0253 19.5318C22.0906 19.5296 22.1556 19.5197 22.2186 19.5021C24.7618 18.7918 25.2302 17.2892 25.269 14.3968L25.2711 14.3495C25.3405 12.7444 25.4192 10.9253 24.2891 9.81308C23.6177 9.15223 22.6177 8.85572 21.3174 8.93294C19.9724 9.01223 18.3893 9.56961 17.1864 10.3873C14.9603 11.8981 13.6727 14.4476 13.2098 16.3294C12.4578 19.3801 12.6965 23.4847 13.8481 27.3111C14.9428 31.1455 16.9758 34.8021 19.287 37.0935C20.704 38.4983 23.1905 40.1032 25.9186 40.3942C26.222 40.4268 26.5333 40.4427 26.8469 40.4427C28.0666 40.4427 29.3216 40.2024 30.2832 39.7689C31.4959 39.222 32.2052 38.5241 32.4518 37.6353C32.8577 36.1725 31.8547 34.7245 30.8849 33.3241L30.7678 33.1547C29.1765 30.7025 27.9686 29.6304 25.4226 30.1675C25.358 30.1812 25.2952 30.2025 25.2358 30.2313C25.2346 30.2313 25.2334 30.2313 25.2322 30.2313C24.8075 30.2313 23.351 29.0911 22.4185 26.8514C22.2138 26.3613 22.0268 25.8309 21.8632 25.2766C21.7 24.7205 21.5719 24.1769 21.4824 23.6591C21.0802 21.368 21.6793 19.7305 22.0253 19.5318ZM20.688 18.5568C19.8133 19.5951 19.4831 21.7596 19.866 23.9408C19.966 24.518 20.1082 25.1228 20.2893 25.7399C20.4701 26.3523 20.6771 26.939 20.9043 27.4829C21.7687 29.5591 23.2323 31.2704 24.5462 31.7412C25.1192 31.9465 25.5563 31.8759 25.8495 31.7548C27.193 31.4825 27.8338 31.6449 29.3979 34.0576C29.4022 34.0644 29.4067 34.071 29.4113 34.0776L29.5364 34.2583C30.2911 35.3479 31.0715 36.4747 30.8711 37.1967C30.7643 37.5815 30.3397 37.9438 29.609 38.2733C28.6509 38.7052 27.3037 38.8928 26.0934 38.763C23.7842 38.5166 21.6058 37.082 20.4422 35.9284C18.3208 33.8252 16.445 30.4334 15.4244 26.8554C15.4233 26.8515 15.4221 26.8477 15.421 26.8439C14.349 23.285 14.1179 19.5012 14.803 16.7216C15.1753 15.2078 16.2642 12.996 18.1084 11.7445C19.0663 11.0934 20.3639 10.6326 21.4142 10.5707C21.5201 10.5645 21.6219 10.5614 21.7198 10.5614C22.3777 10.5614 22.8541 10.7026 23.1384 10.9824C23.7487 11.5831 23.6894 12.9535 23.6321 14.2787L23.6296 14.3384C23.6293 14.3466 23.6291 14.3548 23.629 14.3631C23.5932 17.1192 23.1656 17.5231 21.8639 17.8975C21.5314 17.9265 21.0941 18.0748 20.688 18.5568Z" fill="#0063FF"/>
<path d="M48.4383 8.91586H37.3633C36.9101 8.91586 36.543 9.28314 36.543 9.73618C36.543 10.1892 36.9101 10.5565 37.3633 10.5565H48.4383C48.8914 10.5565 49.2586 10.1892 49.2586 9.73618C49.2586 9.28314 48.8913 8.91586 48.4383 8.91586Z" fill="#0063FF"/>
<path d="M48.4383 13.2481H37.3633C36.9101 13.2481 36.543 13.6154 36.543 14.0684C36.543 14.5215 36.9101 14.8887 37.3633 14.8887H48.4383C48.8914 14.8887 49.2586 14.5215 49.2586 14.0684C49.2586 13.6154 48.8913 13.2481 48.4383 13.2481Z" fill="#0063FF"/>
<path d="M56 12.1966C56 9.84467 55.1631 7.58673 53.5795 5.66687C53.2912 5.31731 52.7742 5.26777 52.4246 5.55597C52.0752 5.84417 52.0255 6.36119 52.3137 6.71075C53.652 8.33333 54.3594 10.2302 54.3594 12.1966C54.3594 17.6037 49.0131 22.0027 42.4417 22.0027C41.14 22.0027 39.8612 21.8304 38.6409 21.4908C38.3915 21.4214 38.1235 21.4739 37.9185 21.6327L35.0871 23.8272L35.4524 20.77C35.5214 20.4403 35.3813 20.0985 35.0945 19.9133C32.1898 18.037 30.524 15.2243 30.524 12.1965C30.524 6.78928 35.8703 2.39033 42.4418 2.39033C45.1394 2.39033 47.6851 3.11581 49.8037 4.48847C50.1837 4.73478 50.6918 4.62628 50.9381 4.24609C51.1845 3.8658 51.076 3.35797 50.6958 3.11155C48.3109 1.56641 45.4568 0.749703 42.4418 0.749703C39.4597 0.749703 36.7 1.56739 34.4589 2.95022C31.2618 1.4707 27.8406 0.71875 24.2814 0.71875C17.7217 0.71875 11.5767 3.29212 6.97834 7.96484C6.66061 8.28783 6.66477 8.80714 6.98764 9.12488C7.14744 9.28216 7.35525 9.36047 7.56295 9.36047C7.77503 9.36047 7.98711 9.27866 8.14767 9.11558C12.4352 4.75884 18.1649 2.35938 24.2814 2.35938C27.2841 2.35938 30.181 2.93228 32.9124 4.06234C30.4263 6.1385 28.8833 9.01813 28.8833 12.1966C28.8833 15.6361 30.6584 18.8191 33.7725 21.001L33.3178 24.8062C33.314 24.8385 33.312 24.8709 33.312 24.9035V25.0967C33.312 25.5614 33.5499 25.9587 33.9328 26.1337C34.0172 26.1722 34.1639 26.223 34.3513 26.223C34.5809 26.223 34.8713 26.1466 35.1821 25.8773C35.2452 25.8217 35.2847 25.7858 35.3334 25.7413C35.3843 25.6949 35.4463 25.6383 35.5659 25.532L38.6035 23.1776C39.8442 23.4868 41.1333 23.6434 42.4417 23.6434C43.9783 23.6434 45.4557 23.4261 46.8338 23.0267C46.8907 23.684 46.9221 24.3443 46.9221 25.0001C46.9221 37.4842 36.7655 47.6407 24.2814 47.6407C11.7972 47.6407 1.64062 37.4841 1.64062 25C1.64062 20.2599 3.0882 15.7225 5.82684 11.8784C6.08967 11.5094 6.0037 10.9972 5.63467 10.7343C5.26575 10.4714 4.75355 10.5575 4.49061 10.9265C1.5528 15.05 0 19.9166 0 25C0 31.4855 2.52547 37.5829 7.11112 42.169C11.6971 46.7555 17.795 49.2812 24.2814 49.2812C37.6702 49.2812 48.5627 38.3887 48.5627 25C48.5627 24.157 48.5177 23.3069 48.43 22.4642C52.9108 20.594 56 16.6945 56 12.1966Z" fill="#0063FF"/>
</svg>
