<svg width="56" height="56" viewBox="0 0 56 56" fill="none" xmlns="http://www.w3.org/2000/svg">
<g clip-path="url(#clip0_237_31824)">
<path d="M31.4231 18.2919C31.4254 17.8388 31.0599 17.4698 30.6069 17.4676C30.6055 17.4676 30.6042 17.4676 30.6028 17.4676C30.1516 17.4676 29.7849 17.8323 29.7826 18.2839L29.7806 18.697C29.2002 18.2503 28.4934 17.9973 27.7069 17.9973C25.7723 17.9973 23.7711 19.6711 23.7711 22.4718C23.7711 25.0263 25.5012 27.1046 27.6277 27.1046C28.5522 27.1046 29.3891 26.7149 30.039 26.0589C30.1681 26.3201 30.3374 26.5607 30.5434 26.7679C31.0008 27.2275 31.59 27.4807 32.2028 27.4807C33.9761 27.4807 35.099 26.2462 35.5587 25.0908C36.2723 23.2968 36.4005 21.7851 35.9747 20.1897C35.9724 20.1813 35.97 20.1727 35.9675 20.1643C35.3227 18.0282 33.8803 16.279 31.9059 15.2392C29.9317 14.1994 27.6728 13.9999 25.5451 14.6774C23.5289 15.3191 21.8516 16.7028 20.822 18.5735C19.7921 20.4446 19.5213 22.6019 20.0594 24.6478C20.5255 26.42 21.5318 27.9489 22.9696 29.0691C24.354 30.1476 26.0784 30.7683 27.8251 30.8166C27.8329 30.8169 27.8405 30.817 27.8482 30.817C28.2906 30.817 28.6553 30.4645 28.6678 30.0194C28.6802 29.5665 28.3234 29.1893 27.8705 29.1768C24.9502 29.0961 22.3906 27.0621 21.646 24.2307C21.2154 22.5935 21.4332 20.8653 22.2592 19.3645C23.0852 17.8637 24.4288 16.7544 26.0427 16.2407C27.7485 15.6977 29.5592 15.8575 31.1414 16.6907C32.7194 17.5218 33.8734 18.9181 34.3923 20.6235C34.7401 21.9369 34.5304 23.2375 34.0345 24.4846C33.8723 24.8922 33.3692 25.8403 32.2029 25.8403C31.9695 25.8403 31.7916 25.6966 31.7064 25.6109C31.5075 25.4109 31.3895 25.1164 31.3909 24.8233L31.4231 18.2919ZM27.6277 25.4641C26.5619 25.4641 25.4116 24.32 25.4116 22.4718C25.4116 20.6978 26.5785 19.6378 27.7069 19.6378C28.8864 19.6378 29.7193 20.7336 29.7626 22.3186L29.7612 22.6185C29.6987 24.2025 28.7658 25.4641 27.6277 25.4641Z" fill="#0063FF"/>
<path d="M52.8724 52.4834C52.8724 52.4831 52.8724 52.4828 52.8724 52.4824V24.4987C52.8724 23.5547 52.4874 22.6341 51.8162 21.9707C51.8153 21.9699 51.8146 21.9688 51.8137 21.9679C51.8132 21.9674 51.8127 21.967 51.8121 21.9665C51.8106 21.965 51.8093 21.9634 51.8078 21.962L48.5839 18.7979V16.9478C48.5839 16.4947 48.2167 16.1276 47.7636 16.1276C47.3105 16.1276 46.9434 16.4947 46.9434 16.9478V25.6707L32.0389 40.5487L29.6948 39.2606C28.6342 38.6776 27.3675 38.6775 26.3066 39.2605L23.9624 40.5487L9.05801 25.6707V11.5108C9.05801 10.4555 9.91665 9.59685 10.9719 9.59685H45.0294C46.0847 9.59685 46.9434 10.4555 46.9434 11.5108V13.4563C46.9434 13.9094 47.3105 14.2765 47.7636 14.2765C48.2167 14.2765 48.5839 13.9094 48.5839 13.4563V11.5108C48.5839 9.5508 46.9894 7.95634 45.0294 7.95634H37.5377L30.3865 0.937616C30.3788 0.92996 30.3708 0.922414 30.3627 0.915196C29.0162 -0.305011 26.9852 -0.30512 25.6386 0.915196C25.6305 0.922414 25.6226 0.92996 25.6148 0.937616L18.4636 7.95634H10.9718C9.01197 7.95634 7.4174 9.5508 7.4174 11.5108V18.798L4.19348 21.9621C4.19217 21.9634 4.19086 21.9648 4.18955 21.9662C4.18889 21.9669 4.18823 21.9673 4.18758 21.968C4.18637 21.9692 4.18539 21.9705 4.1843 21.9716C3.51366 22.635 3.12891 23.5552 3.12891 24.4987V33.859C3.12891 34.3121 3.49616 34.6793 3.94916 34.6793C4.40216 34.6793 4.76941 34.3121 4.76941 33.859V24.4987C4.76941 24.2695 4.81359 24.0437 4.89299 23.8312L7.65812 26.5914L22.4646 41.3716L4.76952 51.0958V37.4338C4.76952 36.9807 4.40226 36.6135 3.94927 36.6135C3.49627 36.6135 3.12902 36.9807 3.12902 37.4338V52.4824V52.4833C3.12902 52.4877 3.12923 52.492 3.12934 52.4963C3.13689 54.4295 4.71155 56 6.64658 56H36.9298C37.3829 56 37.7501 55.6329 37.7501 55.1798C37.7501 54.7267 37.3829 54.3595 36.9298 54.3595H6.64658C5.76815 54.3595 5.03091 53.7522 4.82726 52.9359L24.2133 42.2827L27.0967 40.6982C27.6627 40.3871 28.3385 40.387 28.9046 40.6983L31.7878 42.2827L51.174 52.936C50.9704 53.7522 50.233 54.3595 49.3547 54.3595H40.5047C40.0516 54.3595 39.6845 54.7267 39.6845 55.1798C39.6845 55.6329 40.0516 56 40.5047 56H49.3548C51.2897 56 52.8645 54.4295 52.872 52.4963C52.8721 52.492 52.8724 52.4877 52.8724 52.4834ZM26.7513 2.12097C27.4663 1.48314 28.5353 1.48303 29.2501 2.12097L35.1957 7.95634H20.8057L26.7513 2.12097ZM7.41751 24.0331L5.93417 22.5523L7.41751 21.0966V24.0331ZM48.3431 26.5914L51.1083 23.8311C51.1877 24.0436 51.2318 24.2695 51.2318 24.4987V51.0957L33.5365 41.3716L48.3431 26.5914ZM50.0672 22.5523L48.5839 24.0331V21.0966L50.0672 22.5523Z" fill="#0063FF"/>
</g>
<defs>
<clipPath id="clip0_237_31824">
<rect width="56" height="56" fill="white"/>
</clipPath>
</defs>
</svg>
