<svg width="56" height="56" viewBox="0 0 56 56" fill="none" xmlns="http://www.w3.org/2000/svg">
<g clip-path="url(#clip0_237_31798)">
<path d="M55.9465 54.8888L47.7434 33.2796C47.6752 33.1001 47.5463 32.9503 47.3792 32.8561L38.6416 27.9336L41.1926 23.8889C42.7582 21.4046 43.5858 18.5336 43.5858 15.5864C43.5858 6.99224 36.594 0.000457764 27.9999 0.000457764C19.4058 0.000457764 12.414 6.99224 12.414 15.5864C12.414 18.5343 13.242 21.4054 14.8084 23.8891C14.8503 23.9557 17.3587 27.9338 17.3587 27.9338L8.62089 32.8561C8.45365 32.9503 8.3247 33.1001 8.25656 33.2796L0.0534527 54.8888C-0.0691565 55.2117 0.0237027 55.5767 0.285437 55.8019C0.547499 56.0273 0.922107 56.0643 1.223 55.8947L14.4101 48.4653L27.5972 55.8947C27.8471 56.0355 28.1526 56.0355 28.4025 55.8947L41.5896 48.4653L54.7767 55.8947C54.9025 55.9656 55.0413 56.0003 55.1793 56.0003C55.3714 56.0003 55.5619 55.9331 55.7144 55.8021C55.9763 55.5767 56.0691 55.2117 55.9465 54.8888ZM28.8203 42.5156C29.3335 42.3345 29.7785 41.9856 30.0804 41.5075C30.1221 41.4419 37.1055 30.3695 37.1055 30.3695L40.6622 47.1047L28.8203 53.7761V42.5156ZM16.1962 23.0138C14.7952 20.7924 14.0547 18.224 14.0547 15.5863C14.0547 7.89677 20.3105 1.64097 28 1.64097C35.6895 1.64097 41.9453 7.89677 41.9453 15.5863C41.9453 18.2235 41.2051 20.7921 39.805 23.0138C39.6955 23.1874 28.8868 40.3277 28.6983 40.6238C28.6965 40.6263 28.695 40.6289 28.6933 40.6314C28.5412 40.8721 28.2821 41.0159 28 41.0159C27.7177 41.0159 27.4574 40.8714 27.3051 40.6319C27.1955 40.4581 16.3653 23.2838 16.1999 23.0198C16.1987 23.0178 16.1974 23.0159 16.1962 23.0138ZM9.68489 34.1396L17.3319 29.8317L15.9997 36.0993C15.9056 36.5425 16.1884 36.978 16.6315 37.0723C16.689 37.0845 16.7465 37.0904 16.8029 37.0904C17.1819 37.0904 17.5225 36.8261 17.6044 36.4405L18.8947 30.37L25.9188 41.5097C26.2219 41.9865 26.6672 42.3346 27.1795 42.5155V53.7763L15.3378 47.1048L16.9223 39.6499C17.0165 39.2067 16.7337 38.7712 16.2906 38.6769C15.847 38.5822 15.4117 38.8657 15.3176 39.3087L13.6847 46.9907L2.39112 53.3535L9.68489 34.1396ZM42.3152 46.9908L38.6683 29.8316L46.3151 34.1396L53.6089 53.3535L42.3152 46.9908Z" fill="#0063FF"/>
<path d="M37.0234 15.5859C37.0234 10.6104 32.9755 6.56247 28 6.56247C23.0245 6.56247 18.9766 10.6104 18.9766 15.5859C18.9766 20.5614 23.0245 24.6093 28 24.6093C32.9755 24.6093 37.0234 20.5614 37.0234 15.5859ZM20.6172 15.5859C20.6172 11.515 23.9291 8.20309 28 8.20309C32.0709 8.20309 35.3828 11.515 35.3828 15.5859C35.3828 19.6568 32.0709 22.9687 28 22.9687C23.9291 22.9687 20.6172 19.6568 20.6172 15.5859Z" fill="#0063FF"/>
<path d="M33.7422 15.5859C33.7422 12.4197 31.1662 9.84372 28 9.84372C24.8338 9.84372 22.2578 12.4197 22.2578 15.5859C22.2578 18.7521 24.8338 21.3281 28 21.3281C31.1662 21.3281 33.7422 18.7521 33.7422 15.5859ZM23.8984 15.5859C23.8984 13.3243 25.7383 11.4843 28 11.4843C30.2617 11.4843 32.1016 13.3243 32.1016 15.5859C32.1016 17.8476 30.2617 19.6875 28 19.6875C25.7383 19.6875 23.8984 17.8476 23.8984 15.5859Z" fill="#0063FF"/>
</g>
<defs>
<clipPath id="clip0_237_31798">
<rect width="56" height="56" fill="white"/>
</clipPath>
</defs>
</svg>
