<svg xmlns="http://www.w3.org/2000/svg" width="13" height="17" viewBox="0 0 13 17">
    <path d="M4.41667 9.54167V7.45834H8.58333V9.54167H4.41667ZM10.6667 14.75V2.25001H10.25C9.625 3.70834 8.375 4.75001 6.5 4.75001C4.625 4.75001 3.375 3.70834 2.75 2.25001H2.33333V14.75H2.75C3.375 13.2917 4.625 12.25 6.5 12.25C8.375 12.25 9.625 13.2917 10.25 14.75H10.6667ZM8.58333 0.166672H12.75V16.8333H8.58333C8.58333 16.8333 8.58333 14.3333 6.5 14.3333C4.41667 14.3333 4.41667 16.8333 4.41667 16.8333H0.25V0.166672H4.41667C4.41667 0.166672 4.41667 2.66667 6.5 2.66667C8.58333 2.66667 8.58333 0.166672 8.58333 0.166672Z" fill="#ffffff"/>
</svg>
